# Blender 3.4.0
# www.blender.org
mtllib SlicedCube.mtl
o Cube.001
v -1.000000 1.000000 -1.000000
v 1.000000 -1.000000 1.000000
v -1.000000 -1.000000 1.000000
v -1.000000 -1.000000 1.000000
v 1.000000 1.000000 -1.000000
v 1.000000 -1.000000 -1.000000
v -1.000000 1.000000 -1.000000
v -1.000000 -1.000000 -1.000000
v -1.000000 -1.000000 -1.000000
vn 1.0000 -0.0000 -0.0000
vn -1.0000 -0.0000 -0.0000
vn -0.0000 -0.0000 -1.0000
vn -0.0000 -1.0000 -0.0000
vn -0.0000 0.7071 0.7071
vt 0.375000 0.500000
vt 0.375000 0.750000
vt 0.625000 0.250000
vt 0.375000 0.250000
vt 0.125000 0.500000
vt 0.625000 0.000000
vt 0.375000 0.000000
vt 0.125000 0.750000
s 0
usemtl Material.001
f 6/4/1 5/3/1 2/1/1
f 7/6/2 8/8/2 4/2/2
f 8/7/3 7/6/3 5/3/3 6/4/3
f 6/5/4 2/1/4 4/2/4 8/8/4
f 2/1/5 5/3/5 7/6/5 4/2/5
l 4 3
l 7 1
l 8 9
